<svg width="200" height="200" viewBox="0 0 200 200" fill="none" xmlns="http://www.w3.org/2000/svg">
  <!-- Portal Background -->
  <rect width="200" height="200" fill="#f8f9fa" rx="8"/>
  
  <!-- Header -->
  <rect x="0" y="0" width="200" height="40" fill="#2E8555" rx="8"/>
  <text x="20" y="25" font-family="Arial, sans-serif" font-size="14" font-weight="bold" fill="white">Portal de Generadores</text>
  
  <!-- Navigation -->
  <rect x="0" y="40" width="200" height="30" fill="#e9ecef"/>
  <rect x="10" y="50" width="60" height="10" fill="#2E8555" rx="2"/>
  <rect x="80" y="50" width="60" height="10" fill="#666" rx="2"/>
  <rect x="150" y="50" width="40" height="10" fill="#666" rx="2"/>
  
  <!-- Main Content -->
  <rect x="20" y="80" width="160" height="40" fill="white" rx="4"/>
  <text x="30" y="100" font-family="Arial, sans-serif" font-size="12" fill="#333">Solicitar Servicio de Recolección</text>
  
  <!-- Form Fields -->
  <rect x="30" y="110" width="60" height="8" fill="#f0f0f0" rx="2"/>
  <rect x="100" y="110" width="60" height="8" fill="#f0f0f0" rx="2"/>
  
  <!-- Service Cards -->
  <rect x="20" y="130" width="70" height="50" fill="white" rx="4"/>
  <rect x="25" y="135" width="60" height="8" fill="#2E8555" rx="2"/>
  <rect x="25" y="150" width="50" height="4" fill="#666" rx="1"/>
  <rect x="25" y="160" width="40" height="4" fill="#666" rx="1"/>
  <rect x="25" y="170" width="30" height="6" fill="#2E8555" rx="2"/>
  
  <rect x="100" y="130" width="70" height="50" fill="white" rx="4"/>
  <rect x="105" y="135" width="60" height="8" fill="#2E8555" rx="2"/>
  <rect x="105" y="150" width="50" height="4" fill="#666" rx="1"/>
  <rect x="105" y="160" width="40" height="4" fill="#666" rx="1"/>
  <rect x="105" y="170" width="30" height="6" fill="#2E8555" rx="2"/>
  
  <!-- Status Indicators -->
  <circle cx="30" cy="190" r="4" fill="#28a745"/>
  <text x="40" y="195" font-family="Arial, sans-serif" font-size="10" fill="#333">Servicio Activo</text>
  
  <circle cx="100" cy="190" r="4" fill="#ffc107"/>
  <text x="110" y="195" font-family="Arial, sans-serif" font-size="10" fill="#333">Pendiente</text>
</svg>
