<svg width="200" height="200" viewBox="0 0 200 200" fill="none" xmlns="http://www.w3.org/2000/svg">
  <!-- Phone Body -->
  <rect x="60" y="20" width="80" height="160" rx="12" fill="#2E8555"/>
  <rect x="65" y="25" width="70" height="150" rx="8" fill="white"/>
  
  <!-- Screen -->
  <rect x="70" y="35" width="60" height="100" fill="#f0f0f0"/>
  
  <!-- App Interface -->
  <rect x="75" y="40" width="50" height="8" fill="#2E8555" rx="2"/>
  <rect x="75" y="52" width="30" height="4" fill="#666" rx="1"/>
  <rect x="75" y="60" width="40" height="4" fill="#666" rx="1"/>
  
  <!-- Map -->
  <rect x="75" y="70" width="50" height="30" fill="#e8f5e8" rx="2"/>
  <circle cx="85" cy="80" r="2" fill="#2E8555"/>
  <circle cx="95" cy="85" r="2" fill="#2E8555"/>
  <circle cx="105" cy="90" r="2" fill="#2E8555"/>
  <path d="M85 80L95 85L105 90" stroke="#2E8555" stroke-width="2" fill="none"/>
  
  <!-- Buttons -->
  <rect x="80" y="110" width="15" height="8" fill="#2E8555" rx="2"/>
  <rect x="100" y="110" width="15" height="8" fill="#2E8555" rx="2"/>
  
  <!-- Home Button -->
  <circle cx="100" cy="180" r="6" fill="#2E8555"/>
</svg>
